<?xml version="1.0" encoding="UTF-8"?>
<svg version="1.1" xmlns="http://www.w3.org/2000/svg" width="509" height="509">
<path d="M0 0 C7.15552734 1.29158123 14.32423971 2.50624242 21.49191284 3.72821045 C23.6791037 4.10229901 25.86565105 4.479923 28.05200195 4.85888672 C35.43608736 6.13612982 42.82330319 7.34811941 50.23950195 8.42578125 C52.81152344 8.86425781 52.81152344 8.86425781 55.81152344 9.86425781 C59.49535113 9.99582309 62.30205929 10.0340792 65.81152344 8.86425781 C67.16140406 8.77390241 68.51526366 8.73637364 69.86816406 8.73486328 C71.08457581 8.73013504 71.08457581 8.73013504 72.32556152 8.72531128 C73.19749146 8.72733551 74.06942139 8.72935974 74.96777344 8.73144531 C76.31579041 8.73001022 76.31579041 8.73001022 77.69104004 8.72854614 C79.59073964 8.72786576 81.49044158 8.72971015 83.39013672 8.73388672 C86.30018326 8.73923696 89.21007546 8.73393692 92.12011719 8.72753906 C93.96516961 8.72819987 95.81022194 8.72948108 97.65527344 8.73144531 C98.52720337 8.72942108 99.3991333 8.72739685 100.29748535 8.72531128 C101.10842651 8.72846344 101.91936768 8.7316156 102.75488281 8.73486328 C103.46753296 8.73565887 104.18018311 8.73645447 104.91442871 8.73727417 C106.81152344 8.86425781 106.81152344 8.86425781 109.81152344 9.86425781 C111.64196027 10.05649547 113.47292134 10.24498957 115.30615234 10.40844727 C142.93641834 12.92980624 168.48102011 21.34603383 193.03808594 34.04003906 C196.49340619 35.78381705 199.96149001 36.91651576 203.68652344 37.98925781 C220.81730348 43.36069933 236.71393055 53.71418017 247.81152344 67.86425781 C248.45734375 68.6621875 249.10316406 69.46011719 249.76855469 70.28222656 C261.79261574 85.84683332 266.64632996 102.95228082 267.36593628 122.35247803 C267.40806366 123.45563661 267.45019104 124.5587952 267.493595 125.69538283 C267.89004484 136.81587016 267.95279948 147.92642271 267.94091797 159.05273438 C267.94227882 161.24672982 267.94406254 163.44072505 267.94622803 165.63471985 C267.95073514 171.5287232 267.94903705 177.42270877 267.94584894 183.31671238 C267.94327353 189.59466656 267.94567853 195.87261947 267.94723511 202.15057373 C267.94916454 213.41670983 267.94608572 224.68283884 267.94097577 235.94897327 C267.93656659 245.97461318 267.93733665 256.00023839 267.94189453 266.02587891 C267.98623243 367.14920872 267.98623243 367.14920872 267.53951645 411.20198822 C267.50653793 414.45783612 267.47952463 417.71363662 267.45825577 420.9695816 C267.43344028 424.67085219 267.39436289 428.37168828 267.34347773 432.07269001 C267.32002317 433.99729119 267.30999266 435.92204209 267.30067062 437.84676361 C267.02843443 454.07697567 262.39374865 467.14577308 250.76123047 478.57495117 C237.5603721 490.80817575 223.05759862 494.50345872 205.39105225 493.99633789 C198.35950523 493.63630032 191.39869754 492.57221967 184.44311523 491.52050781 C181.74958132 491.11434194 179.05358192 490.73006089 176.35644531 490.34863281 C168.32253317 489.18600834 160.40428357 487.8721594 152.52636719 485.90332031 C142.70044053 483.45217663 132.73562386 481.99404747 122.72885132 480.4859314 C117.0965326 479.63625177 111.46788747 478.76281988 105.83886719 477.89160156 C104.72339005 477.71943619 103.6079129 477.54727081 102.45863342 477.36988831 C92.62419417 475.84728954 82.80731323 474.23398956 72.99902344 472.55175781 C71.96627289 472.37643524 71.96627289 472.37643524 70.91265869 472.1975708 C64.27225918 471.06840716 57.6698668 469.8583703 51.09277344 468.40332031 C43.04241643 466.6440531 34.93420744 465.31562891 26.80368042 463.98999023 C24.05939279 463.54118809 21.31633079 463.08546448 18.57348633 462.62792969 C10.47942682 461.27973088 2.38450375 459.94444811 -5.72494507 458.69172668 C-37.30918272 453.80291796 -37.30918272 453.80291796 -50.18847656 446.86425781 C-51.12304688 446.38214844 -52.05761719 445.90003906 -53.02050781 445.40332031 C-71.82379337 434.94742266 -85.7446727 417.43405574 -92.29785156 397.03613281 C-95.84443119 384.40533167 -96.34038774 371.73928008 -96.31546021 358.6730957 C-96.3170202 357.39880203 -96.31858019 356.12450836 -96.32018745 354.81159973 C-96.32432708 351.30862249 -96.32231454 347.8056728 -96.31920123 344.30269551 C-96.31692512 340.51107559 -96.32043782 336.71946019 -96.32318115 332.92784119 C-96.32761529 325.51122322 -96.32667258 318.09461541 -96.32376851 310.67799705 C-96.32150385 304.64250826 -96.32120656 298.6070223 -96.32229233 292.5715332 C-96.32244556 291.71024547 -96.32259879 290.84895774 -96.32275667 289.96157038 C-96.32307642 288.21140242 -96.32340064 286.46123445 -96.32372926 284.71106648 C-96.32657751 268.31720826 -96.32330802 251.92335564 -96.3179289 235.52949834 C-96.31346783 221.50029426 -96.3142323 207.47109846 -96.31884766 193.44189453 C-96.32421602 177.11636119 -96.32629619 160.79083276 -96.32323539 144.46529865 C-96.32291688 142.71936862 -96.32260251 140.97343858 -96.32229233 139.22750854 C-96.32206091 137.93928992 -96.32206091 137.93928992 -96.32182483 136.62504667 C-96.32096597 130.60949645 -96.32240902 124.59394939 -96.32477188 118.57839966 C-96.32759554 111.22858993 -96.3267783 103.87879087 -96.32149114 96.52898234 C-96.31888745 92.78777302 -96.31779144 89.04658138 -96.32114029 85.30537224 C-96.34189508 59.60738406 -96.34189508 59.60738406 -95.82492065 47.46191406 C-95.79718225 46.695793 -95.76944384 45.92967194 -95.74086487 45.14033508 C-94.86847647 28.31905475 -85.83597551 15.76310021 -73.81347656 4.55175781 C-53.05998985 -12.44587748 -23.75691145 -4.2955072 0 0 Z " fill="#6E8EA5" transform="translate(170.1884765625,7.1357421875)"/>
<path d="M0 0 C5.0044413 1.19418417 10.04262487 2.05943426 15.11328125 2.921875 C16.60021484 3.17638428 16.60021484 3.17638428 18.1171875 3.43603516 C21.0321895 3.93347414 23.94771105 4.42777906 26.86328125 4.921875 C30.01002797 5.45838127 33.15570906 6.00064808 36.30078125 6.546875 C37.57824219 6.76601563 38.85570312 6.98515625 40.171875 7.2109375 C42.63961609 7.68620615 45.09272196 8.24465239 47.5234375 8.8828125 C52.05892468 10.04953427 56.64690759 10.68843807 61.27587891 11.37255859 C67.72395713 12.35991234 74.13505436 13.55815684 80.55078125 14.734375 C82.00268152 14.99912689 83.45458588 15.26385636 84.90649414 15.52856445 C94.95323539 17.36516425 104.9828795 19.28347007 115.00830078 21.2331543 C122.56559412 22.69445341 130.13658607 24.01510374 137.734375 25.24609375 C142.52355574 26.02238366 147.29799304 26.87644621 152.07324219 27.73364258 C156.13700219 28.45747103 160.20450112 29.14209552 164.28125 29.7890625 C223.42541419 39.20853943 223.42541419 39.20853943 241.23828125 60.80078125 C246.4574165 68.00587421 248.89805892 75.30598501 250.86328125 83.921875 C251.03992247 84.47484001 251.21656368 85.02780502 251.39855766 85.59752655 C252.09810976 89.09638666 252.00040479 92.5894364 251.99026489 96.1427002 C251.99182488 96.97886289 251.99338487 97.81502559 251.99499214 98.67652655 C251.99898578 101.48293658 251.9958187 104.28929267 251.99267578 107.09570312 C251.99403063 109.10635408 251.99581103 111.11700479 251.99798584 113.12765503 C252.00255257 118.59499785 252.00077309 124.06232184 251.99760675 129.52966499 C251.99507647 135.25492529 251.99742282 140.98018397 251.99899292 146.70544434 C252.00081383 156.32934865 251.99841158 165.95324529 251.99365234 175.57714844 C251.98822223 186.68553551 251.98996358 197.7939042 251.99547875 208.90229082 C252.00002688 218.44643069 252.00065174 227.99056504 251.99804008 237.53470564 C251.99648507 243.23147857 251.996262 248.92824289 251.99957657 254.62501526 C252.00247954 259.98970518 252.00043521 265.35437159 251.99468231 270.71905899 C251.99336715 272.68134141 251.99372754 274.64362583 251.99594498 276.60590744 C252.00601292 286.42606387 251.95689044 296.14719813 250.86328125 305.921875 C250.20328125 305.921875 249.54328125 305.921875 248.86328125 305.921875 C248.76015625 307.05625 248.65703125 308.190625 248.55078125 309.359375 C247.97217624 314.11584851 246.51254428 318.44085846 244.86328125 322.921875 C244.20328125 322.921875 243.54328125 322.921875 242.86328125 322.921875 C242.86328125 323.581875 242.86328125 324.241875 242.86328125 324.921875 C242.40953125 325.355 241.95578125 325.788125 241.48828125 326.234375 C239.7294601 327.83600289 239.7294601 327.83600289 239.05078125 330.109375 C236.95214594 335.07982705 234.02825284 339.91155492 229.05078125 342.234375 C228.32890625 342.46125 227.60703125 342.688125 226.86328125 342.921875 C226.53328125 343.911875 226.20328125 344.901875 225.86328125 345.921875 C222.30078125 347.109375 222.30078125 347.109375 218.86328125 347.921875 C218.86328125 348.581875 218.86328125 349.241875 218.86328125 349.921875 C202.68542698 359.16636316 182.85134407 361.11908966 164.86328125 356.921875 C160.81571576 355.71130176 156.83124637 354.37116722 152.86328125 352.921875 C152.86328125 352.261875 152.86328125 351.601875 152.86328125 350.921875 C150.88328125 350.261875 148.90328125 349.601875 146.86328125 348.921875 C146.86328125 348.261875 146.86328125 347.601875 146.86328125 346.921875 C144.88328125 346.261875 142.90328125 345.601875 140.86328125 344.921875 C140.86328125 344.261875 140.86328125 343.601875 140.86328125 342.921875 C140.30640625 342.695 139.74953125 342.468125 139.17578125 342.234375 C135.27606678 340.02102354 132.56041296 336.83686037 129.86328125 333.296875 C128.02171089 330.81428599 128.02171089 330.81428599 125.42578125 329.609375 C121.76095054 327.1959499 119.73018227 323.8622278 117.86328125 319.921875 C117.86328125 318.931875 117.86328125 317.941875 117.86328125 316.921875 C117.20328125 316.921875 116.54328125 316.921875 115.86328125 316.921875 C111.25986212 305.64365808 107.05664779 295.11257321 105.86328125 282.921875 C105.54894278 281.25152168 105.22146754 279.58337778 104.86328125 277.921875 C104.20328125 277.921875 103.54328125 277.921875 102.86328125 277.921875 C102.70472656 276.63796875 102.54617187 275.3540625 102.3828125 274.03125 C101.22119031 265.06869707 99.8783638 256.28634077 97.55078125 247.546875 C95.29143645 239.05025984 93.55448325 230.4972418 91.92578125 221.859375 C84.75417827 171.30998097 84.75417827 171.30998097 56.30078125 131.546875 C47.37345811 125.77533528 39.2048825 125.02082459 28.86328125 125.921875 C20.68653411 127.74374969 13.16054451 132.55245042 8.109375 139.24609375 C-0.94224909 153.69693222 -3.59113007 169.3872972 -3.57250977 186.19067383 C-3.58152113 187.54298211 -3.59173689 188.89528281 -3.6030426 190.24757385 C-3.62919894 193.87178816 -3.63656111 197.4957892 -3.63848996 201.12008882 C-3.64064174 203.39662132 -3.64708224 205.67310178 -3.65498161 207.9496212 C-3.68261774 215.92616517 -3.69500152 223.90256013 -3.69262695 231.87915039 C-3.69082615 239.25988807 -3.72248228 246.63996698 -3.76985794 254.02053815 C-3.80934746 260.40496398 -3.82516783 266.78917669 -3.82326072 273.1737234 C-3.82250365 276.96598071 -3.830612 280.75765051 -3.86279488 284.54978371 C-3.98888242 300.50652735 -3.91707168 315.17441347 2.86328125 329.921875 C3.39718979 331.0893074 3.93109833 332.25673981 4.48118591 333.45954895 C9.86893479 344.50781169 20.45999023 351.87195644 31.86328125 355.921875 C35.25320615 356.77709656 38.65823036 357.33581746 42.11328125 357.859375 C44.13682939 358.18681701 46.16026123 358.51497827 48.18359375 358.84375 C49.25641602 359.01455078 50.32923828 359.18535156 51.43457031 359.36132812 C55.08136074 359.95752798 58.71816151 360.59851412 62.35546875 361.25 C63.62358398 361.4756665 64.89169922 361.70133301 66.19824219 361.93383789 C68.65785178 362.37223906 71.1168766 362.81393867 73.57519531 363.25952148 C79.21320591 364.24937406 84.75403545 365.04316795 90.46875 365.41015625 C96.82345489 365.83210327 102.85007073 367.00987195 109.05078125 368.421875 C115.67051149 369.91184644 122.11975691 371.19553675 128.89575195 371.69335938 C130.86328125 371.921875 130.86328125 371.921875 132.86328125 372.921875 C135.01650697 373.26060743 137.17700955 373.55353651 139.33984375 373.82421875 C140.66406803 373.99409754 141.98828659 374.16402089 143.3125 374.33398438 C145.39223301 374.59645361 147.47215069 374.85736202 149.55224609 375.11694336 C156.77921906 376.02355597 163.82191571 377.02730279 170.86328125 378.921875 C173.77003244 379.48540114 176.68940288 379.95649683 179.61328125 380.421875 C181.20442768 380.68098595 182.79557351 380.94010054 184.38671875 381.19921875 C185.15338867 381.32280762 185.92005859 381.44639648 186.70996094 381.57373047 C189.5544751 382.03362584 192.39644565 382.50823632 195.23828125 382.984375 C198.02265625 383.4484375 198.02265625 383.4484375 200.86328125 383.921875 C204.82328125 384.581875 208.78328125 385.241875 212.86328125 385.921875 C212.86328125 377.341875 212.86328125 368.761875 212.86328125 359.921875 C216.16328125 359.591875 219.46328125 359.261875 222.86328125 358.921875 C222.86328125 358.261875 222.86328125 357.601875 222.86328125 356.921875 C224.65348735 356.25129613 226.44549614 355.5855281 228.23828125 354.921875 C229.23601562 354.550625 230.23375 354.179375 231.26171875 353.796875 C233.86328125 352.921875 233.86328125 352.921875 235.86328125 352.921875 C235.86328125 352.261875 235.86328125 351.601875 235.86328125 350.921875 C237.57352601 349.31325769 239.35766954 347.78249157 241.17578125 346.296875 C242.16191406 345.47960937 243.14804687 344.66234375 244.1640625 343.8203125 C246.86328125 341.921875 246.86328125 341.921875 249.86328125 341.921875 C249.86328125 341.261875 249.86328125 340.601875 249.86328125 339.921875 C250.52328125 339.921875 251.18328125 339.921875 251.86328125 339.921875 C251.86328125 339.261875 251.86328125 338.601875 251.86328125 337.921875 C252.52328125 337.921875 253.18328125 337.921875 253.86328125 337.921875 C254.19328125 336.601875 254.52328125 335.281875 254.86328125 333.921875 C256.03890625 333.8290625 256.03890625 333.8290625 257.23828125 333.734375 C260.00899251 333.21471638 260.00899251 333.21471638 260.92578125 330.921875 C261.23515625 329.931875 261.54453125 328.941875 261.86328125 327.921875 C263.87074556 323.07125989 266.0915569 318.53874134 268.78125 314.02734375 C271.26155387 309.20104849 272.99652506 304.00955069 274.86328125 298.921875 C275.52328125 298.921875 276.18328125 298.921875 276.86328125 298.921875 C277.02763672 297.66697266 277.02763672 297.66697266 277.1953125 296.38671875 C278.24234321 288.69998108 279.55474714 281.17570522 281.1796875 273.58984375 C283.06497048 263.47395393 283.03379824 253.44028095 283.06860352 243.19311523 C283.07819449 241.39870484 283.08820526 239.60429665 283.09860229 237.80989075 C283.12552541 232.95935288 283.14660277 228.10880542 283.16660428 223.25823474 C283.18854195 218.18133996 283.21589241 213.10447435 283.24266052 208.02760315 C283.29248255 198.42310855 283.33746011 188.81859766 283.38068289 179.21407133 C283.43014516 168.27572013 283.48502983 157.33739822 283.54036248 146.39907539 C283.65402141 123.90670261 283.7608952 101.41430172 283.86328125 78.921875 C284.19328125 78.921875 284.52328125 78.921875 284.86328125 78.921875 C285.61178069 94.99339102 286.00985572 111.0223851 285.99267578 127.11035156 C285.99403664 129.30434701 285.99582036 131.49834223 285.99798584 133.69233704 C286.00249295 139.58634039 286.00079486 145.48032596 285.99760675 151.37432957 C285.99503134 157.65228375 285.99743634 163.93023666 285.99899292 170.20819092 C286.00092236 181.47432702 285.99784353 192.74045603 285.99273358 204.00659046 C285.9883244 214.03223036 285.98909446 224.05785557 285.99365234 234.08349609 C286.03799024 335.20682591 286.03799024 335.20682591 285.59127426 379.25960541 C285.55829574 382.5154533 285.53128244 385.77125381 285.51001358 389.02719879 C285.48519809 392.72846937 285.4461207 396.42930547 285.39523554 400.1303072 C285.37178098 402.05490838 285.36175047 403.97965928 285.35242844 405.9043808 C285.08019224 422.13459286 280.44550646 435.20339026 268.81298828 446.63256836 C255.61212992 458.86579294 241.10935644 462.56107591 223.44281006 462.05395508 C216.41126304 461.69391751 209.45045535 460.62983685 202.49487305 459.578125 C199.80133914 459.17195913 197.10533974 458.78767808 194.40820312 458.40625 C186.37429098 457.24362552 178.45604138 455.92977659 170.578125 453.9609375 C160.75219834 451.50979382 150.78738167 450.05166465 140.78060913 448.54354858 C135.14829041 447.69386896 129.51964528 446.82043707 123.890625 445.94921875 C122.77514786 445.77705338 121.65967072 445.604888 120.51039124 445.42750549 C110.67595199 443.90490673 100.85907104 442.29160675 91.05078125 440.609375 C90.0180307 440.43405243 90.0180307 440.43405243 88.9644165 440.25518799 C82.33057989 439.12714034 75.73458087 437.91879453 69.1640625 436.46484375 C60.12112476 434.48854735 50.99564133 433.0397777 41.86328125 431.546875 C40.01247731 431.24179001 38.16172916 430.93636641 36.31103516 430.63061523 C32.60115433 430.01804505 28.8910193 429.40705312 25.18066406 428.79736328 C18.18511295 427.64693527 11.19230958 426.48014312 4.19970703 425.31195068 C1.11634578 424.79700172 -1.96722513 424.28331177 -5.05078125 423.76953125 C-6.74609375 423.48697917 -8.44140625 423.20442708 -10.13671875 422.921875 C-10.13671875 422.591875 -10.13671875 422.261875 -10.13671875 421.921875 C-8.75057373 421.90000122 -8.75057373 421.90000122 -7.33642578 421.87768555 C14.97378325 421.56138103 14.97378325 421.56138103 37.17578125 419.546875 C69.82856695 415.28090811 102.96956059 414.43187701 135.86328125 413.921875 C127.9777737 411.97253447 120.25017595 410.4560525 112.17578125 409.609375 C101.81168687 408.41730631 91.56701818 406.75237679 81.30078125 404.921875 C80.23907211 404.73339493 80.23907211 404.73339493 79.15591431 404.54110718 C71.85036107 403.23998748 64.56425776 401.8730334 57.29296875 400.390625 C49.74187356 398.86501077 42.15993357 397.61904065 34.55078125 396.421875 C33.18636663 396.20367752 31.82202814 395.98500348 30.45776367 395.76586914 C24.7340929 394.84762839 19.00929183 393.93947915 13.27734375 393.07421875 C-5.00888001 390.27359228 -19.98144381 384.77238879 -31.78515625 369.8359375 C-38.70653354 360.10384862 -43.46400276 348.23427039 -43.39741516 336.2403717 C-43.40124071 335.4983897 -43.40506626 334.7564077 -43.40900773 333.99194139 C-43.41927187 331.52197927 -43.41535808 329.05225249 -43.41137695 326.58227539 C-43.41572735 324.80426825 -43.42091159 323.02626299 -43.42686462 321.2482605 C-43.4402377 316.42748534 -43.44083465 311.60678867 -43.43830132 306.78599858 C-43.43722942 302.75097605 -43.44212114 298.71596926 -43.44690675 294.68095011 C-43.45799834 285.14951135 -43.45844277 275.618112 -43.45239258 266.08666992 C-43.44636674 256.28643965 -43.45862918 246.48635345 -43.47996265 236.68614775 C-43.49764636 228.24929905 -43.50356896 219.81249589 -43.5003249 211.37562937 C-43.498521 206.34719741 -43.50105735 201.31886798 -43.51503944 196.29045296 C-43.52772195 191.55189647 -43.52557636 186.81356193 -43.51262856 182.07500839 C-43.51028486 180.3482232 -43.51291688 178.62142189 -43.52125168 176.89465523 C-43.58243016 163.21941005 -42.72835011 149.61638944 -37.13671875 136.921875 C-36.78867188 136.0246875 -36.440625 135.1275 -36.08203125 134.203125 C-33.14698624 126.76000433 -29.75689234 119.4855473 -25.13671875 112.921875 C-24.47671875 112.921875 -23.81671875 112.921875 -23.13671875 112.921875 C-22.90984375 112.385625 -22.68296875 111.849375 -22.44921875 111.296875 C-19.30110892 105.6002953 -14.89676088 101.63604565 -9.76171875 97.796875 C-9.22289062 97.38050781 -8.6840625 96.96414062 -8.12890625 96.53515625 C-1.58657113 91.56609696 4.65451515 88.39042308 12.55078125 86.234375 C13.29650391 86.02232422 14.04222656 85.81027344 14.81054688 85.59179688 C16.82499583 85.02214449 18.84090621 84.46267941 20.86328125 83.921875 C21.49459961 83.73939209 22.12591797 83.55690918 22.77636719 83.36889648 C27.23900316 82.41299025 31.88079896 82.69395142 36.42578125 82.671875 C37.46025391 82.65125 38.49472656 82.630625 39.56054688 82.609375 C46.79608935 82.57312933 52.99857777 83.67094222 59.86328125 85.921875 C60.87261719 86.23769531 61.88195312 86.55351563 62.921875 86.87890625 C65.59296355 87.83944548 68.23050983 88.86068819 70.86328125 89.921875 C71.79785156 90.28410156 72.73242188 90.64632812 73.6953125 91.01953125 C94.31697282 100.04668376 107.59837622 120.84389233 115.86328125 140.921875 C119.61040325 150.7201263 122.40584517 160.56112301 124.31738281 170.87109375 C125.87988187 179.28206179 127.83846569 187.58735034 129.84570312 195.90234375 C131.27364595 201.92729313 132.25949939 207.76208029 132.86328125 213.921875 C133.19328125 215.05625 133.52328125 216.190625 133.86328125 217.359375 C134.68959915 220.30313253 135.06861455 222.6631841 135.30078125 225.671875 C135.85300376 232.06603038 137.52595285 238.127288 139.65625 244.171875 C142.6132573 252.81774406 143.07363294 261.87343431 143.86328125 270.921875 C144.52328125 270.921875 145.18328125 270.921875 145.86328125 270.921875 C146.11722656 271.87449219 146.37117187 272.82710938 146.6328125 273.80859375 C146.97699219 275.06285156 147.32117188 276.31710937 147.67578125 277.609375 C148.01222656 278.85074219 148.34867188 280.09210938 148.6953125 281.37109375 C149.70568633 284.88958341 149.70568633 284.88958341 151.5 287.62890625 C152.86328125 289.921875 152.86328125 289.921875 152.86328125 293.921875 C153.52328125 293.921875 154.18328125 293.921875 154.86328125 293.921875 C155.27578125 295.118125 155.68828125 296.314375 156.11328125 297.546875 C158.96195618 305.00331445 163.0267209 309.83769609 169.86328125 313.921875 C172.21945815 314.85369637 174.37063093 315.40257285 176.86328125 315.921875 C176.86328125 316.581875 176.86328125 317.241875 176.86328125 317.921875 C186.96737951 317.57994274 195.28935736 316.05027396 202.86328125 308.921875 C203.42015625 308.179375 203.97703125 307.436875 204.55078125 306.671875 C204.98390625 306.094375 205.41703125 305.516875 205.86328125 304.921875 C206.52328125 304.921875 207.18328125 304.921875 207.86328125 304.921875 C207.98445312 304.19742187 208.105625 303.47296875 208.23046875 302.7265625 C208.48183594 301.27636719 208.48183594 301.27636719 208.73828125 299.796875 C208.90070313 298.84554688 209.063125 297.89421875 209.23046875 296.9140625 C209.86328125 293.921875 209.86328125 293.921875 210.88807011 291.19641876 C211.99353399 287.48451504 212.10765346 284.40843173 212.09947205 280.5369873 C212.10062517 279.81486636 212.1017783 279.09274541 212.10296637 278.34874201 C212.10425285 275.94006254 212.0911107 273.53168707 212.07788086 271.12304688 C212.07563847 269.39120568 212.07421495 267.65936327 212.07354736 265.92752075 C212.06874505 261.22867386 212.05064544 256.52997027 212.02879786 251.83117485 C212.01562476 248.89057147 212.00513151 245.94997077 211.99554634 243.00935364 C211.96175811 232.73565828 211.9165181 222.46207971 211.86157227 212.18847656 C211.81081937 202.63763494 211.78608486 193.08696366 211.77338213 183.53600264 C211.76120448 175.31821083 211.72987752 167.10063074 211.68409735 158.88295794 C211.65716189 153.98310058 211.63789547 149.08351641 211.63825798 144.18357849 C211.63799511 139.56710843 211.6137195 134.95135301 211.57180786 130.33507919 C211.56047007 128.65103056 211.55736473 126.96690072 211.56360054 125.28282547 C211.60644901 111.55683176 209.66799101 99.99065298 200.86328125 88.921875 C200.86328125 88.261875 200.86328125 87.601875 200.86328125 86.921875 C200.20328125 86.921875 199.54328125 86.921875 198.86328125 86.921875 C197.73005456 85.75430811 196.59701712 84.58655705 195.46484375 83.41796875 C186.57791528 75.11627704 176.19269212 71.91841457 164.44140625 70.13598633 C157.87941165 69.1350154 151.41423914 67.81803417 144.92578125 66.421875 C137.12738114 64.76104239 129.34544818 63.27657666 121.46191406 62.08813477 C113.85032466 60.93901892 106.26303839 59.65894129 98.67578125 58.359375 C97.43352783 58.14925781 96.19127441 57.93914062 94.91137695 57.72265625 C88.81498831 56.67488478 82.8441033 55.49577554 76.86328125 53.921875 C67.90190458 51.95222834 58.90644962 50.42799734 49.84033203 49.04711914 C45.15975079 48.32205833 40.54834862 47.4660314 35.92578125 46.421875 C29.48860628 44.97633395 23.0259666 43.98770186 16.49243164 43.09960938 C9.14413824 42.06805829 2.19390596 40.49272315 -5.13671875 38.921875 C-5.13671875 50.141875 -5.13671875 61.361875 -5.13671875 72.921875 C-10.08671875 74.241875 -15.03671875 75.561875 -20.13671875 76.921875 C-28.1284072 80.1156337 -34.85401412 84.0675366 -41.13671875 89.921875 C-41.79671875 89.921875 -42.45671875 89.921875 -43.13671875 89.921875 C-43.22962337 80.54208968 -43.30058705 71.16246409 -43.34396744 61.78231812 C-43.36479367 57.42616459 -43.39301974 53.07032713 -43.43847656 48.71435547 C-43.48211262 44.50626543 -43.50589315 40.29847837 -43.51622772 36.09017944 C-43.52358738 34.48907709 -43.53795895 32.8879903 -43.55963898 31.28701782 C-43.68642565 21.53157083 -43.44936213 14.54824378 -37.27734375 6.49609375 C-26.49553527 -4.26343826 -14.27434197 -3.69494566 0 0 Z " fill="#F4F6F5" transform="translate(152.13671875,39.078125)"/>
<path d="M0 0 C14.20730776 9.69244902 22.19962447 23.64307606 27.0546875 39.890625 C27.34722412 40.86322266 27.63976074 41.83582031 27.94116211 42.83789062 C33.96783333 63.60375589 37.60089761 85.09686781 41.61035156 106.32446289 C42.86048294 112.87574662 44.22956767 119.33382442 45.9921875 125.765625 C48.0348246 133.41915737 48.47008269 140.94698414 48.6796875 148.828125 C49.3396875 148.828125 49.9996875 148.828125 50.6796875 148.828125 C52.52473871 152.90912809 53.24240767 156.78867377 53.9296875 161.203125 C55.05239019 167.88106937 56.98978064 173.84420918 59.69824219 180.04248047 C60.92197218 182.84564004 61.6796875 184.72571272 61.6796875 187.828125 C62.3396875 187.828125 62.9996875 187.828125 63.6796875 187.828125 C64.05480469 188.58738281 64.42992187 189.34664062 64.81640625 190.12890625 C65.32816406 191.12277344 65.83992188 192.11664063 66.3671875 193.140625 C66.86605469 194.12675781 67.36492187 195.11289062 67.87890625 196.12890625 C69.86859878 199.11128703 71.55981422 200.15819283 74.6796875 201.828125 C78.6796875 206.26055743 78.6796875 206.26055743 78.6796875 208.828125 C79.2571875 209.09625 79.8346875 209.364375 80.4296875 209.640625 C82.73518793 210.85741689 84.70024942 212.13146379 86.6796875 213.828125 C86.6796875 214.488125 86.6796875 215.148125 86.6796875 215.828125 C87.6490625 216.116875 88.6184375 216.405625 89.6171875 216.703125 C92.6796875 217.828125 92.6796875 217.828125 93.6796875 219.828125 C95.32331884 220.54971924 96.99019136 221.22163921 98.6796875 221.828125 C98.6796875 222.488125 98.6796875 223.148125 98.6796875 223.828125 C108.02332387 226.37746741 116.94924944 228.47482619 126.6796875 228.828125 C127.9378125 228.910625 129.1959375 228.993125 130.4921875 229.078125 C141.1546131 228.90078736 151.74938713 225.43029278 161.6796875 221.828125 C162.6696875 221.498125 163.6596875 221.168125 164.6796875 220.828125 C164.6796875 220.168125 164.6796875 219.508125 164.6796875 218.828125 C167.1546875 217.838125 167.1546875 217.838125 169.6796875 216.828125 C169.0196875 217.818125 168.3596875 218.808125 167.6796875 219.828125 C167.0196875 219.828125 166.3596875 219.828125 165.6796875 219.828125 C165.6796875 220.488125 165.6796875 221.148125 165.6796875 221.828125 C162.07984759 225.15823627 158.56263364 227.18563209 153.6796875 227.828125 C150.41579429 228.89006685 150.41579429 228.89006685 147.6796875 230.828125 C148.27394531 230.76753906 148.86820313 230.70695313 149.48046875 230.64453125 C155.87668679 229.99794622 162.27640364 229.40028154 168.6796875 228.828125 C164.90608206 231.15034373 163.66769339 230.828125 158.6796875 230.828125 C158.6796875 239.408125 158.6796875 247.988125 158.6796875 256.828125 C152.30321591 256.828125 149.37235693 256.55182714 143.6796875 254.828125 C141.02688862 254.46380369 138.40397073 254.14924091 135.7421875 253.890625 C129.69216515 253.24238438 123.7220506 252.39313897 117.7421875 251.265625 C116.72233765 251.07528687 116.72233765 251.07528687 115.68188477 250.88110352 C110.95024705 249.96340478 110.95024705 249.96340478 108.6796875 248.828125 C106.4561729 248.47766376 104.22537244 248.17298172 101.9921875 247.890625 C101.00472534 247.76312866 101.00472534 247.76312866 99.99731445 247.63305664 C97.89186378 247.36129704 95.78586885 247.09415885 93.6796875 246.828125 C90.90830796 246.47806931 88.13758944 246.1233259 85.3671875 245.765625 C84.13355469 245.60964844 82.89992188 245.45367187 81.62890625 245.29296875 C78.6796875 244.828125 78.6796875 244.828125 76.6796875 243.828125 C74.34994174 243.52799194 72.01556281 243.26358002 69.6796875 243.015625 C62.93947684 242.24986601 56.42097129 241.01739511 49.8515625 239.32495117 C44.6938715 238.06825802 39.52355793 237.43622145 34.25 236.88671875 C25.67723507 235.99264822 17.20543545 234.72578623 8.70996094 233.27856445 C6.41701485 232.88846902 4.12272376 232.50719396 1.828125 232.12695312 C-26.38993641 227.40876002 -26.38993641 227.40876002 -34.3203125 221.828125 C-35.22652344 221.20035156 -36.13273437 220.57257813 -37.06640625 219.92578125 C-47.47213648 212.11795381 -52.54022048 202.06415748 -56.3203125 189.828125 C-56.66164719 188.89464233 -57.00298187 187.96115967 -57.35466003 186.99938965 C-58.96932243 181.27264352 -58.60656822 175.32008621 -58.5949707 169.41992188 C-58.59932351 168.06393149 -58.60450856 166.70794355 -58.61045837 165.35195923 C-58.62380672 161.68203424 -58.6244311 158.01221251 -58.62189507 154.34226799 C-58.62082132 151.26648595 -58.62571968 148.19072446 -58.6305005 145.11494684 C-58.64158392 137.84647223 -58.64204137 130.57804928 -58.63598633 123.30957031 C-58.62996364 115.84620765 -58.64221667 108.38303433 -58.6635564 100.91970396 C-58.68126565 94.48624848 -58.68715869 88.05285271 -58.68391865 81.6193738 C-58.6821185 77.78871292 -58.68461247 73.95818673 -58.69863319 70.12754822 C-58.71135759 66.51589696 -58.70913214 62.90453626 -58.69622231 59.29288864 C-58.69278854 57.36233487 -58.70392943 55.43177161 -58.71578979 53.50125122 C-58.61736312 36.8241131 -55.11636365 18.45745021 -43.4375 5.78515625 C-31.41557522 -5.27030007 -14.42564884 -8.36609445 0 0 Z " fill="#A7BBC7" transform="translate(206.3203125,168.171875)"/>
<path d="M0 0 C6.0784466 0.60784466 11.64629518 1.20807095 17.5625 2.375 C18.94774251 2.64412715 20.33316583 2.91232492 21.71875 3.1796875 C22.42257813 3.31600586 23.12640625 3.45232422 23.8515625 3.59277344 C27.41493608 4.2681947 30.98887713 4.88156675 34.5625 5.5 C39.95705787 6.43676848 45.32410185 7.45761777 50.6875 8.5625 C56.56490842 9.759061 62.43756794 10.65948712 68.37890625 11.46875 C76.12771267 12.60557597 83.90957009 13.93273217 91.48828125 15.91015625 C98.18241008 17.61774289 105.01657745 18.71564316 111.8125 19.9375 C113.30981657 20.20889131 114.80713101 20.48029438 116.30444336 20.75170898 C123.87649924 22.11811013 131.45207859 23.42600586 139.0625 24.5625 C149.18896701 26.07693135 159.17127258 28.26991034 169.17675781 30.42724609 C172.03116445 31.00632236 174.89135712 31.48000066 177.765625 31.94921875 C187.6271757 33.71637342 197.00508726 38.83854172 204 46 C204 46.66 204 47.32 204 48 C204.66 48 205.32 48 206 48 C216.4699881 59.60602786 217.74715113 74.12993731 217.70703125 88.89404297 C217.72042738 90.64666919 217.73594628 92.39928025 217.75340271 94.15187073 C217.79405209 98.86845222 217.80421289 103.58463309 217.80769348 108.30137014 C217.81579105 113.25577934 217.84965911 118.21002275 217.87988281 123.16433716 C217.92667152 131.474141 217.95409757 139.78383162 217.96923828 148.09375 C217.98690261 157.68824595 218.03273871 167.28228632 218.09413052 176.87659538 C218.15293088 186.13287068 218.19441025 195.38914021 218.22714233 204.64554214 C218.24118373 208.57440757 218.26078399 212.50318644 218.28482056 216.43200302 C218.31214574 221.05650579 218.32411879 225.6808065 218.3243885 230.3053875 C218.32684343 231.99846512 218.33440126 233.6915445 218.34753227 235.38457298 C218.36461569 237.70215936 218.36283721 240.01901522 218.35644531 242.3366394 C218.36191376 244.27831403 218.36191376 244.27831403 218.36749268 246.2592144 C217.93267466 250.68531882 216.69145274 253.89743228 215 258 C214.6731378 259.38801342 214.37059302 260.78282772 214.125 262.1875 C212.81626323 266.62266349 211.53513774 268.07966883 208 271 C207.37480469 271.51691406 206.74960937 272.03382813 206.10546875 272.56640625 C198.2241041 278.82026157 191.88456767 279.28790003 182 279 C182 278.34 182 277.68 182 277 C181.030625 276.979375 180.06125 276.95875 179.0625 276.9375 C172.3879389 275.97625489 167.02123366 270.63695167 163 265.5 C160.73232607 262.06342198 160.249494 259.07506864 160 255 C159.34 255 158.68 255 158 255 C151.90073529 239.02573529 151.90073529 239.02573529 151 232 C150.34 232 149.68 232 149 232 C148.84180786 231.01773438 148.84180786 231.01773438 148.68041992 230.015625 C148.19125425 227.00896809 147.68947422 224.0045439 147.1875 221 C146.9390332 219.45505859 146.9390332 219.45505859 146.68554688 217.87890625 C145.67635443 211.89991703 144.29163221 206.61011602 142 201 C140.16778517 194.55471909 139.4299018 187.96310995 138.69702148 181.3203125 C138.57667643 177.8646875 138.57667643 177.8646875 137 175 C136.71428201 173.27637516 136.47415352 171.54520672 136.25 169.8125 C135.1982161 162.63839193 133.60865254 155.63731235 131.95581055 148.58032227 C130.69188771 143.15056129 129.54354453 137.72098023 128.52685547 132.23974609 C123.34898015 104.47740512 111.62212156 75.14016464 88 58 C80.77393453 53.53533017 73.21381363 50.13580406 65 48 C66.32 47.67 67.64 47.34 69 47 C61.39901859 43.08854606 53.79898046 40.13547609 45.625 37.6875 C44.35994629 37.30634033 44.35994629 37.30634033 43.06933594 36.91748047 C39.37663685 35.84269607 35.7776446 34.89713888 31.9609375 34.39453125 C29 34 29 34 28 33 C25.92545653 32.98320437 23.85026768 33.03743314 21.77734375 33.12109375 C20.0756604 33.18574829 20.0756604 33.18574829 18.33959961 33.25170898 C16.88690674 33.31302002 15.43421387 33.37433105 13.9375 33.4375 C9.338125 33.623125 4.73875 33.80875 0 34 C0 22.78 0 11.56 0 0 Z " fill="#9CB2C1" transform="translate(147,78)"/>
<path d="M0 0 C0.33 0 0.66 0 1 0 C1.74849944 16.07151602 2.14657447 32.1005101 2.12939453 48.18847656 C2.13075539 50.38247201 2.13253911 52.57646723 2.13470459 54.77046204 C2.1392117 60.66446539 2.13751361 66.55845096 2.1343255 72.45245457 C2.13175009 78.73040875 2.13415509 85.00836166 2.13571167 91.28631592 C2.13764111 102.55245202 2.13456228 113.81858103 2.12945233 125.08471546 C2.12504315 135.11035536 2.12581321 145.13598057 2.13037109 155.16162109 C2.17470899 256.28495091 2.17470899 256.28495091 1.72799301 300.33773041 C1.69501449 303.5935783 1.66800119 306.84937881 1.64673233 310.10532379 C1.62191684 313.80659437 1.58283945 317.50743047 1.53195429 321.2084322 C1.50849973 323.13303338 1.49846922 325.05778428 1.48914719 326.9825058 C1.21691099 343.21271786 -3.41777479 356.28151526 -15.05029297 367.71069336 C-28.25115133 379.94391794 -42.75392481 383.63920091 -60.42047119 383.13208008 C-67.45201821 382.77204251 -74.4128259 381.70796185 -81.3684082 380.65625 C-84.06194211 380.25008413 -86.75794151 379.86580308 -89.45507812 379.484375 C-97.48899027 378.32175052 -105.40723987 377.00790159 -113.28515625 375.0390625 C-123.11108291 372.58791882 -133.07589958 371.12978965 -143.08267212 369.62167358 C-148.71499084 368.77199396 -154.34363597 367.89856207 -159.97265625 367.02734375 C-161.08813339 366.85517838 -162.20361053 366.683013 -163.35289001 366.50563049 C-173.18732926 364.98303173 -183.00421021 363.36973175 -192.8125 361.6875 C-193.50100037 361.57061829 -194.18950073 361.45373657 -194.89886475 361.33331299 C-201.53270136 360.20526534 -208.12870038 358.99691953 -214.69921875 357.54296875 C-223.74215649 355.56667235 -232.86763992 354.1179027 -242 352.625 C-243.85080394 352.31991501 -245.70155209 352.01449141 -247.55224609 351.70874023 C-251.26212692 351.09617005 -254.97226195 350.48517812 -258.68261719 349.87548828 C-265.6781683 348.72506027 -272.67097167 347.55826812 -279.66357422 346.39007568 C-282.74693547 345.87512672 -285.83050638 345.36143677 -288.9140625 344.84765625 C-290.609375 344.56510417 -292.3046875 344.28255208 -294 344 C-294 343.67 -294 343.34 -294 343 C-292.61385498 342.97812622 -292.61385498 342.97812622 -291.19970703 342.95581055 C-268.889498 342.63950603 -268.889498 342.63950603 -246.6875 340.625 C-214.0347143 336.35903311 -180.89372066 335.51000201 -148 335 C-148 334.67 -148 334.34 -148 334 C-141.64780958 334.54881057 -135.32126362 335.16511613 -129 336 C-129 336.66 -129 337.32 -129 338 C-127.4840625 337.9071875 -127.4840625 337.9071875 -125.9375 337.8125 C-122.04141195 337.81921739 -118.49472617 338.43855203 -114.6875 339.25 C-106.11490843 341.0715678 -97.48136365 342.31606332 -88.80737305 343.55371094 C-83.58425739 344.30340044 -78.3899933 345.09334078 -73.20703125 346.0859375 C-63.8383321 347.81927448 -53.4475646 349.43325402 -45.1875 343.8125 C-38.67606272 338.29433282 -34.53704117 332.55441871 -33.6991272 323.88818359 C-33.55788846 320.14209562 -33.50649881 316.40496085 -33.48828125 312.65625 C-33.47140927 311.27761258 -33.45325568 309.8989903 -33.43388367 308.52038574 C-33.38665025 304.91691829 -33.35666961 301.31351226 -33.33044434 297.70983887 C-33.30050307 294.02258172 -33.25401988 290.33553572 -33.20898438 286.6484375 C-33.12325526 279.43239707 -33.05577621 272.21634077 -33 265 C-34.62715156 265.95467564 -36.25165346 266.91386848 -37.875 267.875 C-38.77992188 268.40867187 -39.68484375 268.94234375 -40.6171875 269.4921875 C-43.06603282 270.91975352 -43.06603282 270.91975352 -45 273 C-45.99 272.67 -46.98 272.34 -48 272 C-46.23669281 270.4911599 -44.46409603 268.9931702 -42.6875 267.5 C-41.20830078 266.24703125 -41.20830078 266.24703125 -39.69921875 264.96875 C-37 263 -37 263 -34 263 C-34 262.34 -34 261.68 -34 261 C-33.34 261 -32.68 261 -32 261 C-32 260.34 -32 259.68 -32 259 C-31.34 259 -30.68 259 -30 259 C-29.67 257.68 -29.34 256.36 -29 255 C-28.21625 254.938125 -27.4325 254.87625 -26.625 254.8125 C-23.85428874 254.29284138 -23.85428874 254.29284138 -22.9375 252 C-22.628125 251.01 -22.31875 250.02 -22 249 C-19.99253569 244.14938489 -17.77172435 239.61686634 -15.08203125 235.10546875 C-12.60172738 230.27917349 -10.86675619 225.08767569 -9 220 C-8.34 220 -7.68 220 -7 220 C-6.83564453 218.74509766 -6.83564453 218.74509766 -6.66796875 217.46484375 C-5.62093804 209.77810608 -4.30853411 202.25383022 -2.68359375 194.66796875 C-0.79831077 184.55207893 -0.82948301 174.51840595 -0.79467773 164.27124023 C-0.78508676 162.47682984 -0.77507599 160.68242165 -0.76467896 158.88801575 C-0.73775584 154.03747788 -0.71667848 149.18693042 -0.69667697 144.33635974 C-0.6747393 139.25946496 -0.64738884 134.18259935 -0.62062073 129.10572815 C-0.5707987 119.50123355 -0.52582114 109.89672266 -0.48259836 100.29219633 C-0.43313609 89.35384513 -0.37825142 78.41552322 -0.32291877 67.47720039 C-0.20925984 44.98482761 -0.10238605 22.49242672 0 0 Z " fill="#B9C9D3" transform="translate(436,118)"/>
<path d="M0 0 C1.33316002 0.00068733 1.33316002 0.00068733 2.69325256 0.00138855 C4.55113072 0.00438336 6.409007 0.01218514 8.2668457 0.0246582 C11.11483588 0.04307987 13.96250291 0.04516632 16.81054688 0.04492188 C18.62370074 0.04983216 20.4368524 0.05565832 22.25 0.0625 C23.52495583 0.06416924 23.52495583 0.06416924 24.82566833 0.06587219 C28.18143942 0.09302942 30.95508451 0.1621115 34.16015625 1.23046875 C35.99059309 1.42270641 37.82155415 1.6112005 39.65478516 1.7746582 C68.94566063 4.44755364 95.09920812 14.04776952 121.16015625 27.23046875 C121.16015625 27.56046875 121.16015625 27.89046875 121.16015625 28.23046875 C115.94017152 27.61133832 110.78503517 26.85719516 105.609375 25.92578125 C104.91720886 25.80213196 104.22504272 25.67848267 103.51190186 25.55108643 C101.29018917 25.15418985 99.06892942 24.75481693 96.84765625 24.35546875 C87.44448183 22.67221443 78.04732598 21.00988695 68.59765625 19.60546875 C62.15602253 18.64004125 55.8904385 17.27852723 49.57006836 15.71264648 C41.93735818 13.85844253 34.21248333 12.74867295 26.45068359 11.58496094 C22.27314212 10.93842606 18.11586989 10.18122833 13.95654297 9.42773438 C9.6003664 8.64473826 5.23843421 7.91708617 0.8671875 7.22265625 C-0.22118408 7.04790771 -1.30955566 6.87315918 -2.4309082 6.69311523 C-4.58864524 6.34806339 -6.74732589 6.008852 -8.90698242 5.67602539 C-10.38581909 5.43807251 -10.38581909 5.43807251 -11.89453125 5.1953125 C-13.21686768 4.98829712 -13.21686768 4.98829712 -14.56591797 4.77709961 C-16.83984375 4.23046875 -16.83984375 4.23046875 -19.83984375 2.23046875 C-13.14520858 0.66948367 -6.86623901 -0.05903017 0 0 Z " fill="#D1DDE4" transform="translate(245.83984375,15.76953125)"/>
<path d="M0 0 C0.33 0 0.66 0 1 0 C1.00135653 0.70451056 1.00271306 1.40902112 1.00411069 2.13488048 C1.08485228 43.93832598 1.17584418 85.74173831 1.28005161 127.54513222 C1.2925697 132.57037116 1.30500259 137.59561032 1.31738281 142.62084961 C1.31984881 143.6212369 1.3223148 144.62162418 1.32485552 145.65232623 C1.3645227 161.82654832 1.39729671 178.00077734 1.42749982 194.17501955 C1.45867125 210.78517468 1.49730478 227.3953005 1.54279006 244.00542265 C1.57059848 254.24544243 1.59266446 264.48544092 1.60726251 274.72548819 C1.61784716 281.75819181 1.63571412 288.79085406 1.65916704 295.82352643 C1.6724646 299.87415202 1.68268644 303.92471993 1.68421364 307.9753685 C0.91269202 335.49624553 0.91269202 335.49624553 7 362 C7.22558594 362.6703125 7.45117188 363.340625 7.68359375 364.03125 C9.23962131 368.6026304 11.35817028 372.36724563 14.109375 376.3359375 C14.40328125 376.88507813 14.6971875 377.43421875 15 378 C14.67 378.66 14.34 379.32 14 380 C0.9592667 361.58513165 -1.16885979 341.75892345 -1.12698364 319.80883789 C-1.12854363 318.53454422 -1.13010362 317.26025055 -1.13171089 315.94734192 C-1.13585052 312.44436467 -1.13383797 308.94141499 -1.13072467 305.4384377 C-1.12844855 301.64681778 -1.13196126 297.85520238 -1.13470459 294.06358337 C-1.13913872 286.64696541 -1.13819601 279.23035759 -1.13529195 271.81373924 C-1.13302728 265.77825045 -1.13273 259.74276449 -1.13381577 253.70727539 C-1.133969 252.84598766 -1.13412223 251.98469993 -1.13428011 251.09731257 C-1.13459986 249.3471446 -1.13492408 247.59697664 -1.1352527 245.84680867 C-1.13810095 229.45295045 -1.13483146 213.05909783 -1.12945233 196.66524053 C-1.12499127 182.63603645 -1.12575574 168.60684065 -1.13037109 154.57763672 C-1.13573945 138.25210337 -1.13781963 121.92657494 -1.13475883 105.60104084 C-1.13444032 103.8551108 -1.13412595 102.10918077 -1.13381577 100.36325073 C-1.13358435 99.0750321 -1.13358435 99.0750321 -1.13334826 97.76078886 C-1.1324894 91.74523864 -1.13393246 85.72969157 -1.13629532 79.71414185 C-1.13911898 72.36433212 -1.13830174 65.01453305 -1.13301457 57.66472453 C-1.13041089 53.92351521 -1.12931488 50.18232356 -1.13266373 46.44111443 C-1.14544724 30.93205518 -1.00737834 15.48095528 0 0 Z " fill="#8FA8BB" transform="translate(75,46)"/>
<path d="M0 0 C0.33 0 0.66 0 1 0 C2.10300102 7.17978649 2.18500338 14.2721475 2.24609375 21.52734375 C2.27061479 23.51853727 2.29514708 25.50973072 2.32029057 27.50091648 C2.38042608 32.36551984 2.43126396 37.23021052 2.47680664 42.0949707 C1.96562516 69.03865284 1.96562516 69.03865284 8 95 C8.22558594 95.6703125 8.45117188 96.340625 8.68359375 97.03125 C10.23962131 101.6026304 12.35817028 105.36724563 15.109375 109.3359375 C15.40328125 109.88507813 15.6971875 110.43421875 16 111 C15.505 111.99 15.505 111.99 15 113 C1.40706126 93.80536028 -0.18455809 73.18415796 -0.09765625 50.390625 C-0.09578592 48.92804005 -0.09436493 47.46545446 -0.09336853 46.00286865 C-0.08959171 42.19553834 -0.07980409 38.38824756 -0.06866455 34.58093262 C-0.05834512 30.67896051 -0.05384859 26.77698188 -0.04882812 22.875 C-0.03817633 15.24998218 -0.02115975 7.62499668 0 0 Z " fill="#A3B9C6" transform="translate(74,313)"/>
<path d="M0 0 C0.66 0.33 1.32 0.66 2 1 C0.02 1.99 0.02 1.99 -2 3 C-2 3.66 -2 4.32 -2 5 C-5.59983991 8.33011127 -9.11705386 10.35750709 -14 11 C-17.26389321 12.06194185 -17.26389321 12.06194185 -20 14 C-19.01 14.66 -18.02 15.32 -17 16 C-19.66673742 16.02727345 -22.33318869 16.04696948 -25 16.0625 C-26.11568359 16.07506836 -26.11568359 16.07506836 -27.25390625 16.08789062 C-32.26148844 16.10966272 -37.04279032 15.71541549 -42 15 C-42 14.67 -42 14.34 -42 14 C-34.08 13.505 -34.08 13.505 -26 13 C-26 12.34 -26 11.68 -26 11 C-24.98679687 10.74605469 -23.97359375 10.49210937 -22.9296875 10.23046875 C-21.57803342 9.88316874 -20.22647599 9.53549241 -18.875 9.1875 C-18.20984375 9.02185547 -17.5446875 8.85621094 -16.859375 8.68554688 C-12.58951925 7.57622161 -8.93654624 6.03836 -5 4 C-4.34 4 -3.68 4 -3 4 C-3 3.34 -3 2.68 -3 2 C-2.01 1.34 -1.02 0.68 0 0 Z " fill="#96A9B4" transform="translate(374,385)"/>
<path d="M0 0 C6.15234375 -0.09765625 6.15234375 -0.09765625 8 0 C8.33 0.33 8.66 0.66 9 1 C15.24691457 2.76190454 21.70722788 3.62419931 28.125 4.5 C29.50413574 4.69118408 29.50413574 4.69118408 30.91113281 4.88623047 C32.75663117 5.14145897 34.60233081 5.39523687 36.44824219 5.64746094 C38.66790598 5.95411943 40.88494218 6.27379158 43.1015625 6.6015625 C52.3885323 7.93395431 61.63651039 8.56448886 71 9 C71 9.33 71 9.66 71 10 C58.53576884 10.38708792 46.62586114 9.46729758 34.30200195 7.60131836 C31.54253246 7.18448378 28.7805858 6.78911076 26.01757812 6.39648438 C17.18551482 5.11491343 8.51907864 3.75402847 0 1 C0 0.67 0 0.34 0 0 Z " fill="#E6EFF4" transform="translate(320,491)"/>
<path d="M0 0 C0 0.66 0 1.32 0 2 C-1.546875 2.804375 -1.546875 2.804375 -3.125 3.625 C-7.13585294 5.9285856 -9.99070442 8.47692225 -13 12 C-13 13.32 -13 14.64 -13 16 C-14.5 18.75 -14.5 18.75 -16 21 C-16.99 20.67 -17.98 20.34 -19 20 C-21.91725552 23.3877806 -23.28255824 27.07337555 -24.6875 31.25 C-25.02491211 32.22453125 -25.02491211 32.22453125 -25.36914062 33.21875 C-25.91916227 34.81030199 -26.46046788 36.40486156 -27 38 C-28.31103738 34.98691409 -27.91400089 33.72011197 -26.92578125 30.50390625 C-26.39969787 29.18538493 -25.86149692 27.8716465 -25.3125 26.5625 C-25.05533203 25.90701172 -24.79816406 25.25152344 -24.53320312 24.57617188 C-21.31770198 16.69937914 -9.35279745 0 0 0 Z " fill="#B6C9D4" transform="translate(104,8)"/>
<path d="M0 0 C0.33 0 0.66 0 1 0 C1.0271045 3.04172719 1.04688964 6.08320997 1.0625 9.125 C1.07087891 9.9809375 1.07925781 10.836875 1.08789062 11.71875 C1.10538306 16.26678411 0.93192358 20.52383164 0 25 C-0.66 25 -1.32 25 -2 25 C-2.28875 25.94875 -2.5775 26.8975 -2.875 27.875 C-4 31 -4 31 -6 33 C-5.46677217 27.77436728 -4.56132417 22.70862795 -3.5 17.5625 C-2.61264037 13.25062139 -1.80962612 9.00631169 -1.375 4.625 C-1 1 -1 1 0 0 Z " fill="#AABFCB" transform="translate(436,299)"/>
<path d="M0 0 C0.33 0 0.66 0 1 0 C1.18175781 1.05058594 1.36351563 2.10117187 1.55078125 3.18359375 C2.87819684 10.66993223 4.276377 17.87557564 7 25 C7.33644531 26.00740234 7.33644531 26.00740234 7.6796875 27.03515625 C9.24580059 31.6015197 11.35847926 35.36769135 14.109375 39.3359375 C14.40328125 39.88507813 14.6971875 40.43421875 15 41 C14.67 41.66 14.34 42.32 14 43 C4.98671569 30.27230746 -0.58205749 15.71555233 0 0 Z " fill="#DAE3E6" transform="translate(75,383)"/>
<path d="M0 0 C0.66 0.33 1.32 0.66 2 1 C0.02 1.99 0.02 1.99 -2 3 C-2 3.66 -2 4.32 -2 5 C-5.55558658 8.28917375 -9.13847993 10.47443026 -14 11 C-14.8971875 11.2784375 -14.8971875 11.2784375 -15.8125 11.5625 C-19.21151372 12.24230274 -22.5381043 12.05769826 -26 12 C-26 11.67 -26 11.34 -26 11 C-24.98679687 10.74605469 -23.97359375 10.49210937 -22.9296875 10.23046875 C-21.57803342 9.88316874 -20.22647599 9.53549241 -18.875 9.1875 C-18.20984375 9.02185547 -17.5446875 8.85621094 -16.859375 8.68554688 C-12.58951925 7.57622161 -8.93654624 6.03836 -5 4 C-4.34 4 -3.68 4 -3 4 C-3 3.34 -3 2.68 -3 2 C-2.01 1.34 -1.02 0.68 0 0 Z " fill="#A7B8C4" transform="translate(374,385)"/>
<path d="M0 0 C8.6819064 0.59194816 16.69781159 4.42610176 24 9 C21.44640395 10.27679803 20.7090348 9.69660895 18 9 C16.700625 9.061875 16.700625 9.061875 15.375 9.125 C14.59125 9.08375 13.8075 9.0425 13 9 C12.34 8.01 11.68 7.02 11 6 C11.33 5.67 11.66 5.34 12 5 C8.04 3.68 4.08 2.36 0 1 C0 0.67 0 0.34 0 0 Z " fill="#B3C8D2" transform="translate(367,44)"/>
<path d="M0 0 C0.95648438 0.00902344 1.91296875 0.01804687 2.8984375 0.02734375 C5.22423525 0.05060173 7.54947294 0.08327787 9.875 0.125 C9.875 0.455 9.875 0.785 9.875 1.125 C-0.51613779 2.43118118 -10.63574452 3.45858056 -21.125 3.125 C-21.125 2.795 -21.125 2.465 -21.125 2.125 C-13.9918439 0.40520944 -7.32266008 -0.13370025 0 0 Z " fill="#ECF1F4" transform="translate(247.125,15.875)"/>
<path d="M0 0 C5.56993641 -0.16382166 10.76379762 0.43964746 16.25 1.375 C17.05179688 1.50132813 17.85359375 1.62765625 18.6796875 1.7578125 C19.45054687 1.88671875 20.22140625 2.015625 21.015625 2.1484375 C21.70946289 2.26364746 22.40330078 2.37885742 23.11816406 2.49755859 C25 3 25 3 28 5 C21.55637696 5.2408831 15.7896034 4.35299608 9.5 3 C8.5821875 2.80921875 7.664375 2.6184375 6.71875 2.421875 C4.47758423 1.95496547 2.23819917 1.48089308 0 1 C0 0.67 0 0.34 0 0 Z " fill="#D8E7EC" transform="translate(198,13)"/>
<path d="M0 0 C5.45769811 -0.11138159 10.61509359 0.08342019 16 1 C16 1.66 16 2.32 16 3 C16.66 3.33 17.32 3.66 18 4 C15.77110504 4.05428973 13.54182529 4.09292338 11.3125 4.125 C9.45044922 4.15980469 9.45044922 4.15980469 7.55078125 4.1953125 C4.18762143 4.01032021 2.0014413 3.45767895 -1 2 C-0.67 1.34 -0.34 0.68 0 0 Z " fill="#98ABB7" transform="translate(213,91)"/>
<path d="M0 0 C3.71368887 1.23789629 4.77354181 2.85224877 7 6 C7 6.66 7 7.32 7 8 C7.5775 8.268125 8.155 8.53625 8.75 8.8125 C11.05550043 10.02929189 13.02056192 11.30333879 15 13 C15 13.66 15 14.32 15 15 C16.98 15.66 18.96 16.32 21 17 C20.67 17.66 20.34 18.32 20 19 C12.08986482 14.80278542 5.20235035 9.39381662 0 2 C0 1.34 0 0.68 0 0 Z " fill="#C9D6DD" transform="translate(278,369)"/>
<path d="M0 0 C1.60745059 3.21490118 1.40305242 5.4301071 1 9 C-1.03310147 12.52821301 -3.29425316 16.14712658 -7 18 C-5.64474464 13.78224268 -4.09799886 9.70578678 -2.375 5.625 C-1.92898437 4.56539062 -1.48296875 3.50578125 -1.0234375 2.4140625 C-0.68570313 1.61742187 -0.34796875 0.82078125 0 0 Z " fill="#DAE9EB" transform="translate(120,164)"/>
<path d="M0 0 C5.99932374 1.8331267 11.44920563 4.07321751 17 7 C13.81619067 8.59190467 10.71923676 7.28749598 7.375 6.5625 C6.66859375 6.41490234 5.9621875 6.26730469 5.234375 6.11523438 C3.48831251 5.74950507 1.74398116 5.37552879 0 5 C0.99 4.34 1.98 3.68 3 3 C2.01 2.67 1.02 2.34 0 2 C0 1.34 0 0.68 0 0 Z " fill="#7E95A4" transform="translate(201,118)"/>
<path d="M0 0 C2.60557491 0.28184585 5.20900398 0.57502711 7.8125 0.875 C8.55048828 0.95363281 9.28847656 1.03226563 10.04882812 1.11328125 C13.71506181 1.54460286 15.87951745 1.9196783 19 4 C13.06 4.495 13.06 4.495 7 5 C7 4.01 7 3.02 7 2 C4.69 2 2.38 2 0 2 C0 1.34 0 0.68 0 0 Z " fill="#7F9BAC" transform="translate(279,28)"/>
<path d="M0 0 C0.76849965 2.25542675 1.15628879 3.53906176 0.37915039 5.83105469 C0.03875732 6.43852539 -0.30163574 7.04599609 -0.65234375 7.671875 C-1.01650391 8.33574219 -1.38066406 8.99960937 -1.75585938 9.68359375 C-2.14580078 10.36550781 -2.53574219 11.04742187 -2.9375 11.75 C-3.32357422 12.44738281 -3.70964844 13.14476562 -4.10742188 13.86328125 C-5.06073637 15.5816012 -6.02895346 17.29163804 -7 19 C-7.33 18.34 -7.66 17.68 -8 17 C-7.13945779 14.4389324 -6.21877703 11.99089486 -5.1875 9.5 C-4.91357422 8.81035156 -4.63964844 8.12070312 -4.35742188 7.41015625 C-3.17158303 4.49248081 -2.2488982 2.2488982 0 0 Z " fill="#7B90A0" transform="translate(85,26)"/>
<path d="M0 0 C2.3431213 0.25561323 4.67843403 0.59270772 7 1 C7.33 1.66 7.66 2.32 8 3 C7.67 3.66 7.34 4.32 7 5 C7.78375 5.0825 8.5675 5.165 9.375 5.25 C12 6 12 6 13.3125 8.0625 C13.539375 8.701875 13.76625 9.34125 14 10 C10.19136032 8.65378455 7.34590149 6.94641263 4.1875 4.4375 C3.39730469 3.81746094 2.60710937 3.19742187 1.79296875 2.55859375 C0.90544922 1.78708984 0.90544922 1.78708984 0 1 C0 0.67 0 0.34 0 0 Z " fill="#D2D9DE" transform="translate(104,442)"/>
<path d="M0 0 C2.56280208 0.14154136 5.12515485 0.28808562 7.6875 0.4375 C8.40873047 0.47681641 9.12996094 0.51613281 9.87304688 0.55664062 C13.66707282 0.78185678 17.28651492 1.12839305 21 2 C21 2.33 21 2.66 21 3 C15.375 4.125 15.375 4.125 12 3 C9.94106379 2.77674186 7.87766347 2.59294241 5.8125 2.4375 C4.18248047 2.31181641 4.18248047 2.31181641 2.51953125 2.18359375 C1.68808594 2.12300781 0.85664063 2.06242187 0 2 C0 1.34 0 0.68 0 0 Z " fill="#7D95A3" transform="translate(155,431)"/>
<path d="M0 0 C3.85025879 0.60355408 6.86101159 1.76772603 10.3125 3.5625 C11.19550781 4.01753906 12.07851563 4.47257812 12.98828125 4.94140625 C13.65214844 5.29074219 14.31601562 5.64007813 15 6 C15 6.33 15 6.66 15 7 C4.61538462 5.96153846 4.61538462 5.96153846 1.25 1.875 C0.8375 1.25625 0.425 0.6375 0 0 Z " fill="#DAE6ED" transform="translate(352,37)"/>
<path d="M0 0 C-1.45287661 1.33927721 -2.91247259 2.67126847 -4.375 4 C-5.18710938 4.7425 -5.99921875 5.485 -6.8359375 6.25 C-9 8 -9 8 -11 8 C-10.45700313 4.19902189 -8.92723228 2.42542103 -6 0 C-3.33960928 -1.01720822 -2.57437055 -1.28718528 0 0 Z " fill="#6F879B" transform="translate(104,12)"/>
<path d="M0 0 C0.66 0.33 1.32 0.66 2 1 C-0.41930028 3.41930028 -3.05688942 4.97535705 -5.96484375 6.75390625 C-7.61882029 7.76660973 -9.25055218 8.81557751 -10.875 9.875 C-11.57625 10.24625 -12.2775 10.6175 -13 11 C-13.66 10.67 -14.32 10.34 -15 10 C-13.43902526 8.8936781 -11.87614673 7.79004215 -10.3125 6.6875 C-9.44238281 6.07261719 -8.57226562 5.45773438 -7.67578125 4.82421875 C-2.63127561 1.38511783 -2.63127561 1.38511783 0 0 Z " fill="#D2E2E9" transform="translate(156,128)"/>
<path d="M0 0 C0.58265625 0.23589844 1.1653125 0.47179687 1.765625 0.71484375 C0.50620114 1.9144375 -0.76732786 3.09923818 -2.046875 4.27734375 C-3.10841797 5.26927734 -3.10841797 5.26927734 -4.19140625 6.28125 C-4.86558594 6.75433594 -5.53976563 7.22742188 -6.234375 7.71484375 C-7.224375 7.38484375 -8.214375 7.05484375 -9.234375 6.71484375 C-8.16721428 5.51278911 -7.07999163 4.32852042 -5.984375 3.15234375 C-5.38109375 2.49105469 -4.7778125 1.82976562 -4.15625 1.1484375 C-2.234375 -0.28515625 -2.234375 -0.28515625 0 0 Z " fill="#798FA0" transform="translate(140.234375,137.28515625)"/>
<path d="M0 0 C6.27 0 12.54 0 19 0 C15.71299843 1.64350079 13.52069985 2.41321669 10 3 C10 2.34 10 1.68 10 1 C6.7 1 3.4 1 0 1 C0 0.67 0 0.34 0 0 Z " fill="#A3B5C0" transform="translate(152,461)"/>
<path d="M0 0 C1.45922693 0.11409593 2.91740598 0.24165544 4.375 0.375 C5.59316406 0.47941406 5.59316406 0.47941406 6.8359375 0.5859375 C9 1 9 1 11 3 C7.37 3 3.74 3 0 3 C0 2.01 0 1.02 0 0 Z " fill="#628398" transform="translate(195,119)"/>
<path d="M0 0 C0.66 0.33 1.32 0.66 2 1 C-4.26637555 7.44541485 -4.26637555 7.44541485 -8 10 C-8.99 9.67 -9.98 9.34 -11 9 C-7.37 6.03 -3.74 3.06 0 0 Z " fill="#9CAEB7" transform="translate(399,381)"/>
<path d="M0 0 C3.10190545 4.65285818 4.33846504 9.41532676 4 15 C3.34 15 2.68 15 2 15 C1.66223316 13.2508503 1.32996329 11.50063855 1 9.75 C0.814375 8.77546875 0.62875 7.8009375 0.4375 6.796875 C0 4 0 4 0 0 Z " fill="#A5C1CF" transform="translate(432,101)"/>
<path d="M0 0 C6.09781001 -0.22084624 11.21642935 -0.01167675 17 2 C17 2.33 17 2.66 17 3 C10.93107371 3.25287193 5.83799592 2.69832609 0 1 C0 0.67 0 0.34 0 0 Z " fill="#8CA4B1" transform="translate(265,449)"/>
<path d="M0 0 C0.66 0.99 1.32 1.98 2 3 C-6.57142857 3.28571429 -6.57142857 3.28571429 -10 1 C-6.61292998 0.22581257 -3.47338282 -0.37550085 0 0 Z " fill="#8CA0AC" transform="translate(148,458)"/>
<path d="M0 0 C0.66 0 1.32 0 2 0 C4.09350689 3.4019487 4.17942163 6.05272412 4 10 C1.67527795 7.14693203 0.2491742 4.45925163 -1 1 C-0.67 0.67 -0.34 0.34 0 0 Z " fill="#778F9F" transform="translate(422,85)"/>
<path d="M0 0 C-1.28813342 0.83878455 -2.58063256 1.67086783 -3.875 2.5 C-4.59429687 2.9640625 -5.31359375 3.428125 -6.0546875 3.90625 C-8 5 -8 5 -10 5 C-10 4.34 -10 3.68 -10 3 C-9.01 3 -8.02 3 -7 3 C-7 2.01 -7 1.02 -7 0 C-2.25 -1.125 -2.25 -1.125 0 0 Z " fill="#D9E2E8" transform="translate(414,491)"/>
<path d="M0 0 C-2.93828597 2.50298434 -5.17902761 3.46930939 -9 4 C-8 1 -8 1 -5.625 -0.25 C-3 -1 -3 -1 0 0 Z " fill="#8B9FAB" transform="translate(388,391)"/>
<path d="M0 0 C0.33 0.99 0.66 1.98 1 3 C-0.65 4.65 -2.3 6.3 -4 8 C-4.25 5.6875 -4.25 5.6875 -4 3 C-2 1.1875 -2 1.1875 0 0 Z " fill="#A0AFB9" transform="translate(161,179)"/>
<path d="M0 0 C0.99 0.33 1.98 0.66 3 1 C3 4.3 3 7.6 3 11 C2.67 11 2.34 11 2 11 C0.80712589 7.12315913 0 4.08378077 0 0 Z " fill="#8298A7" transform="translate(400,112)"/>
<path d="M0 0 C4.19115285 0.58210456 5.37542083 1.28156562 9 4 C5.7 3.67 2.4 3.34 -1 3 C-0.67 2.01 -0.34 1.02 0 0 Z " fill="#7C96A8" transform="translate(354,74)"/>
<path d="M0 0 C-5.625 4 -5.625 4 -9 4 C-8 1 -8 1 -6.1875 -0.25 C-3.66056586 -1.11637742 -2.47778006 -0.88492145 0 0 Z " fill="#718698" transform="translate(114,7)"/>
<path d="M0 0 C0.33 0 0.66 0 1 0 C1.08131463 1.43655854 1.13933559 2.8744483 1.1875 4.3125 C1.23970703 5.51326172 1.23970703 5.51326172 1.29296875 6.73828125 C0.93801608 9.47851584 0.10633718 10.29171079 -2 12 C-1 3.42857143 -1 3.42857143 0 0 Z " fill="#9AB3C2" transform="translate(432,320)"/>
<path d="M0 0 C2.31 0.33 4.62 0.66 7 1 C7 1.99 7 2.98 7 4 C4.625 3.6875 4.625 3.6875 2 3 C1.34 2.01 0.68 1.02 0 0 Z " fill="#AFC1CC" transform="translate(104,442)"/>
<path d="M0 0 C3.63 0.33 7.26 0.66 11 1 C11 1.33 11 1.66 11 2 C9.72125 2.144375 8.4425 2.28875 7.125 2.4375 C4.74307106 2.70642746 3.15547309 2.92226346 1 4 C0.67 2.68 0.34 1.36 0 0 Z " fill="#92A9B7" transform="translate(191,436)"/>
</svg>
